<svg xmlns="http://www.w3.org/2000/svg" x="0px" y="0px" width="100" height="100" viewBox="0,0,256,256">
<g fill="none" fill-rule="nonzero" stroke="none" stroke-width="1" stroke-linecap="butt" stroke-linejoin="miter" stroke-miterlimit="10" stroke-dasharray="" stroke-dashoffset="0" font-family="none" font-weight="none" font-size="none" text-anchor="none" style="mix-blend-mode: normal"><g transform="scale(4,4)"><path d="M57,13v38c0,3.31 -2.69,6 -6,6h-38c-3.31,0 -6,-2.69 -6,-6v-38c0,-3.31 2.69,-6 6,-6h38c3.31,0 6,2.69 6,6z" fill="#efeeff"></path><path d="M54,57h-44c-1,-1 -2,-2 -3,-3v0c0,-1.657 1.343,-3 3,-3h44c1.657,0 3,1.343 3,3v0c-1,1 -2,2 -3,3z" fill="#faefde"></path><path d="M51,58h-38c-3.86,0 -7,-3.141 -7,-7v-38c0,-3.859 3.14,-7 7,-7h38c3.86,0 7,3.141 7,7v38c0,3.859 -3.14,7 -7,7zM13,8c-2.757,0 -5,2.243 -5,5v38c0,2.757 2.243,5 5,5h38c2.757,0 5,-2.243 5,-5v-38c0,-2.757 -2.243,-5 -5,-5z" fill="#8d6c9f"></path><path d="M16,21c-2.757,0 -5,-2.243 -5,-5c0,-2.757 2.243,-5 5,-5c2.757,0 5,2.243 5,5c0,2.757 -2.243,5 -5,5zM16,13c-1.654,0 -3,1.346 -3,3c0,1.654 1.346,3 3,3c1.654,0 3,-1.346 3,-3c0,-1.654 -1.346,-3 -3,-3z" fill="#8d6c9f"></path><circle cx="16" cy="16" r="1.5" fill="#7bbeeb"></circle><path d="M16,34c-2.757,0 -5,-2.243 -5,-5c0,-2.757 2.243,-5 5,-5c2.757,0 5,2.243 5,5c0,2.757 -2.243,5 -5,5zM16,26c-1.654,0 -3,1.346 -3,3c0,1.654 1.346,3 3,3c1.654,0 3,-1.346 3,-3c0,-1.654 -1.346,-3 -3,-3z" fill="#8d6c9f"></path><circle cx="16" cy="29" r="1.5" fill="#ed7899"></circle><path d="M16,47c-2.757,0 -5,-2.243 -5,-5c0,-2.757 2.243,-5 5,-5c2.757,0 5,2.243 5,5c0,2.757 -2.243,5 -5,5zM16,39c-1.654,0 -3,1.346 -3,3c0,1.654 1.346,3 3,3c1.654,0 3,-1.346 3,-3c0,-1.654 -1.346,-3 -3,-3z" fill="#8d6c9f"></path><circle cx="16" cy="42" r="1.5" fill="#f9dd8f"></circle><path d="M17,53c0.552,0 1,-0.448 1,-1v-2c0,-0.552 -0.448,-1 -1,-1c-0.552,0 -1,0.448 -1,1v2c0,0.552 0.448,1 1,1zM12,49c-0.552,0 -1,0.448 -1,1v2c0,0.552 0.448,1 1,1c0.552,0 1,-0.448 1,-1v-2c0,-0.552 -0.448,-1 -1,-1zM32,53c0.552,0 1,-0.448 1,-1v-2c0,-0.552 -0.448,-1 -1,-1c-0.552,0 -1,0.448 -1,1v2c0,0.552 0.448,1 1,1zM37,53c0.552,0 1,-0.448 1,-1v-2c0,-0.552 -0.448,-1 -1,-1c-0.552,0 -1,0.448 -1,1v2c0,0.552 0.448,1 1,1zM42,53c0.552,0 1,-0.448 1,-1v-2c0,-0.552 -0.448,-1 -1,-1c-0.552,0 -1,0.448 -1,1v2c0,0.552 0.448,1 1,1zM47,53c0.552,0 1,-0.448 1,-1v-2c0,-0.552 -0.448,-1 -1,-1c-0.552,0 -1,0.448 -1,1v2c0,0.552 0.448,1 1,1zM52,49c-0.552,0 -1,0.448 -1,1v2c0,0.552 0.448,1 1,1c0.552,0 1,-0.448 1,-1v-2c0,-0.552 -0.448,-1 -1,-1zM22,53c0.552,0 1,-0.448 1,-1v-2c0,-0.552 -0.448,-1 -1,-1c-0.552,0 -1,0.448 -1,1v2c0,0.552 0.448,1 1,1zM27,53c0.552,0 1,-0.448 1,-1v-2c0,-0.552 -0.448,-1 -1,-1c-0.552,0 -1,0.448 -1,1v2c0,0.552 0.448,1 1,1z" fill="#8d6c9f"></path><path d="M52,17h-27c-0.552,0 -1,-0.447 -1,-1c0,-0.553 0.448,-1 1,-1h27c0.552,0 1,0.447 1,1c0,0.553 -0.448,1 -1,1z" fill="#8d6c9f"></path><path d="M52,30h-27c-0.552,0 -1,-0.447 -1,-1c0,-0.553 0.448,-1 1,-1h27c0.552,0 1,0.447 1,1c0,0.553 -0.448,1 -1,1z" fill="#8d6c9f"></path><path d="M52,43h-27c-0.552,0 -1,-0.447 -1,-1c0,-0.553 0.448,-1 1,-1h27c0.552,0 1,0.447 1,1c0,0.553 -0.448,1 -1,1z" fill="#8d6c9f"></path></g></g>
</svg>